<svg width="320" height="320" viewBox="0 0 320 320" xmlns="http://www.w3.org/2000/svg" shape-rendering="crispEdges"><rect width="100%" height="100%" fill="#e1d7d5" /><rect width="100" height="10" x="110" y="260" fill="#e9265c" /><rect width="100" height="10" x="110" y="270" fill="#e9265c" /><rect width="20" height="10" x="110" y="280" fill="#e9265c" /><rect width="70" height="10" x="140" y="280" fill="#e9265c" /><rect width="20" height="10" x="110" y="290" fill="#e9265c" /><rect width="70" height="10" x="140" y="290" fill="#e9265c" /><rect width="20" height="10" x="110" y="300" fill="#e9265c" /><rect width="70" height="10" x="140" y="300" fill="#e9265c" /><rect width="20" height="10" x="110" y="310" fill="#e9265c" /><rect width="70" height="10" x="140" y="310" fill="#e9265c" /><rect width="30" height="10" x="160" y="280" fill="#f20422" /><rect width="10" height="10" x="160" y="290" fill="#f20422" /><rect width="30" height="10" x="160" y="300" fill="#f20422" /><rect width="10" height="10" x="130" y="70" fill="#26b1f3" /><rect width="50" height="10" x="140" y="70" fill="#fa6fe2" /><rect width="20" height="10" x="110" y="80" fill="#fa6fe2" /><rect width="10" height="10" x="130" y="80" fill="#26b1f3" /><rect width="40" height="10" x="140" y="80" fill="#fa6fe2" /><rect width="10" height="10" x="180" y="80" fill="#fee3f3" /><rect width="20" height="10" x="190" y="80" fill="#fa6fe2" /><rect width="100" height="10" x="90" y="90" fill="#fa6fe2" /><rect width="10" height="10" x="190" y="90" fill="#fee3f3" /><rect width="30" height="10" x="200" y="90" fill="#fa6fe2" /><rect width="80" height="10" x="80" y="100" fill="#fa6fe2" /><rect width="10" height="10" x="160" y="100" fill="#ffe939" /><rect width="50" height="10" x="170" y="100" fill="#fa6fe2" /><rect width="20" height="10" x="220" y="100" fill="#e9265c" /><rect width="20" height="10" x="80" y="110" fill="#fa6fe2" /><rect width="20" height="10" x="100" y="110" fill="#fee3f3" /><rect width="10" height="10" x="120" y="110" fill="#fa6fe2" /><rect width="10" height="10" x="130" y="110" fill="#e9265c" /><rect width="30" height="10" x="140" y="110" fill="#fa6fe2" /><rect width="10" height="10" x="170" y="110" fill="#ffe939" /><rect width="60" height="10" x="180" y="110" fill="#fa6fe2" /><rect width="70" height="10" x="70" y="120" fill="#fa6fe2" /><rect width="10" height="10" x="140" y="120" fill="#e9265c" /><rect width="10" height="10" x="150" y="120" fill="#fa6fe2" /><rect width="10" height="10" x="160" y="120" fill="#f38b7c" /><rect width="50" height="10" x="170" y="120" fill="#fa6fe2" /><rect width="10" height="10" x="220" y="120" fill="#26b1f3" /><rect width="20" height="10" x="230" y="120" fill="#fa6fe2" /><rect width="70" height="10" x="70" y="130" fill="#fa6fe2" /><rect width="50" height="10" x="140" y="130" fill="#f38b7c" /><rect width="20" height="10" x="190" y="130" fill="#fa6fe2" /><rect width="10" height="10" x="210" y="130" fill="#26b1f3" /><rect width="30" height="10" x="220" y="130" fill="#fa6fe2" /><rect width="40" height="10" x="60" y="140" fill="#fa6fe2" /><rect width="10" height="10" x="100" y="140" fill="#ffe939" /><rect width="20" height="10" x="110" y="140" fill="#fa6fe2" /><rect width="10" height="10" x="130" y="140" fill="#f38b7c" /><rect width="10" height="10" x="180" y="140" fill="#f38b7c" /><rect width="60" height="10" x="190" y="140" fill="#fa6fe2" /><rect width="10" height="10" x="250" y="140" fill="#4bea69" /><rect width="10" height="10" x="60" y="150" fill="#fa6fe2" /><rect width="20" height="10" x="70" y="150" fill="#4bea69" /><rect width="10" height="10" x="90" y="150" fill="#fa6fe2" /><rect width="10" height="10" x="100" y="150" fill="#ffe939" /><rect width="10" height="10" x="110" y="150" fill="#fa6fe2" /><rect width="10" height="10" x="120" y="150" fill="#f38b7c" /><rect width="10" height="10" x="190" y="150" fill="#f38b7c" /><rect width="20" height="10" x="200" y="150" fill="#ffe939" /><rect width="30" height="10" x="220" y="150" fill="#fa6fe2" /><rect width="10" height="10" x="250" y="150" fill="#4bea69" /><rect width="60" height="10" x="60" y="160" fill="#fa6fe2" /><rect width="10" height="10" x="120" y="160" fill="#f38b7c" /><rect width="10" height="10" x="190" y="160" fill="#f38b7c" /><rect width="60" height="10" x="200" y="160" fill="#fa6fe2" /><rect width="60" height="10" x="60" y="170" fill="#fa6fe2" /><rect width="10" height="10" x="120" y="170" fill="#f38b7c" /><rect width="10" height="10" x="190" y="170" fill="#f38b7c" /><rect width="60" height="10" x="200" y="170" fill="#fa6fe2" /><rect width="20" height="10" x="60" y="180" fill="#fa6fe2" /><rect width="10" height="10" x="80" y="180" fill="#26b1f3" /><rect width="30" height="10" x="90" y="180" fill="#fa6fe2" /><rect width="10" height="10" x="120" y="180" fill="#f38b7c" /><rect width="10" height="10" x="190" y="180" fill="#f38b7c" /><rect width="30" height="10" x="200" y="180" fill="#fa6fe2" /><rect width="20" height="10" x="230" y="180" fill="#fee3f3" /><rect width="10" height="10" x="250" y="180" fill="#fa6fe2" /><rect width="20" height="10" x="60" y="190" fill="#fa6fe2" /><rect width="10" height="10" x="80" y="190" fill="#26b1f3" /><rect width="30" height="10" x="90" y="190" fill="#fa6fe2" /><rect width="20" height="10" x="120" y="190" fill="#f38b7c" /><rect width="10" height="10" x="180" y="190" fill="#f38b7c" /><rect width="20" height="10" x="190" y="190" fill="#fa6fe2" /><rect width="10" height="10" x="210" y="190" fill="#26b1f3" /><rect width="40" height="10" x="220" y="190" fill="#fa6fe2" /><rect width="70" height="10" x="70" y="200" fill="#fa6fe2" /><rect width="50" height="10" x="140" y="200" fill="#f38b7c" /><rect width="30" height="10" x="190" y="200" fill="#fa6fe2" /><rect width="10" height="10" x="220" y="200" fill="#26b1f3" /><rect width="20" height="10" x="230" y="200" fill="#fa6fe2" /><rect width="40" height="10" x="70" y="210" fill="#fa6fe2" /><rect width="10" height="10" x="110" y="210" fill="#fee3f3" /><rect width="60" height="10" x="120" y="210" fill="#fa6fe2" /><rect width="20" height="10" x="180" y="210" fill="#e9265c" /><rect width="50" height="10" x="200" y="210" fill="#fa6fe2" /><rect width="20" height="10" x="80" y="220" fill="#fa6fe2" /><rect width="10" height="10" x="100" y="220" fill="#fee3f3" /><rect width="40" height="10" x="110" y="220" fill="#fa6fe2" /><rect width="10" height="10" x="150" y="220" fill="#26b1f3" /><rect width="80" height="10" x="160" y="220" fill="#fa6fe2" /><rect width="70" height="10" x="80" y="230" fill="#fa6fe2" /><rect width="10" height="10" x="150" y="230" fill="#26b1f3" /><rect width="20" height="10" x="160" y="230" fill="#1f1d29" /><rect width="20" height="10" x="180" y="230" fill="#fa6fe2" /><rect width="10" height="10" x="200" y="230" fill="#ffe939" /><rect width="30" height="10" x="210" y="230" fill="#fa6fe2" /><rect width="20" height="10" x="90" y="240" fill="#fa6fe2" /><rect width="10" height="10" x="110" y="240" fill="#e9265c" /><rect width="90" height="10" x="120" y="240" fill="#fa6fe2" /><rect width="10" height="10" x="210" y="240" fill="#ffe939" /><rect width="10" height="10" x="220" y="240" fill="#fa6fe2" /><rect width="10" height="10" x="110" y="250" fill="#e9265c" /><rect width="90" height="10" x="120" y="250" fill="#fa6fe2" /><rect width="10" height="10" x="130" y="260" fill="#fa6fe2" /><rect width="20" height="10" x="140" y="260" fill="#4bea69" /><rect width="30" height="10" x="160" y="260" fill="#fa6fe2" /><rect width="80" height="10" x="80" y="140" fill="#8dd122" /><rect width="80" height="10" x="170" y="140" fill="#8dd122" /><rect width="10" height="10" x="80" y="150" fill="#8dd122" /><rect width="20" height="10" x="90" y="150" fill="#ffffff" /><rect width="40" height="10" x="110" y="150" fill="#000000" /><rect width="10" height="10" x="150" y="150" fill="#8dd122" /><rect width="10" height="10" x="170" y="150" fill="#8dd122" /><rect width="20" height="10" x="180" y="150" fill="#ffffff" /><rect width="40" height="10" x="200" y="150" fill="#000000" /><rect width="10" height="10" x="240" y="150" fill="#8dd122" /><rect width="10" height="10" x="80" y="160" fill="#8dd122" /><rect width="20" height="10" x="90" y="160" fill="#ffffff" /><rect width="40" height="10" x="110" y="160" fill="#000000" /><rect width="10" height="10" x="150" y="160" fill="#8dd122" /><rect width="10" height="10" x="170" y="160" fill="#8dd122" /><rect width="20" height="10" x="180" y="160" fill="#ffffff" /><rect width="40" height="10" x="200" y="160" fill="#000000" /><rect width="10" height="10" x="240" y="160" fill="#8dd122" /><rect width="40" height="10" x="50" y="170" fill="#8dd122" /><rect width="20" height="10" x="90" y="170" fill="#ffffff" /><rect width="40" height="10" x="110" y="170" fill="#000000" /><rect width="30" height="10" x="150" y="170" fill="#8dd122" /><rect width="20" height="10" x="180" y="170" fill="#ffffff" /><rect width="40" height="10" x="200" y="170" fill="#000000" /><rect width="10" height="10" x="240" y="170" fill="#8dd122" /><rect width="10" height="10" x="50" y="180" fill="#8dd122" /><rect width="10" height="10" x="80" y="180" fill="#8dd122" /><rect width="20" height="10" x="90" y="180" fill="#ffffff" /><rect width="40" height="10" x="110" y="180" fill="#000000" /><rect width="10" height="10" x="150" y="180" fill="#8dd122" /><rect width="10" height="10" x="170" y="180" fill="#8dd122" /><rect width="20" height="10" x="180" y="180" fill="#ffffff" /><rect width="40" height="10" x="200" y="180" fill="#000000" /><rect width="10" height="10" x="240" y="180" fill="#8dd122" /><rect width="10" height="10" x="50" y="190" fill="#8dd122" /><rect width="10" height="10" x="80" y="190" fill="#8dd122" /><rect width="20" height="10" x="90" y="190" fill="#ffffff" /><rect width="40" height="10" x="110" y="190" fill="#000000" /><rect width="10" height="10" x="150" y="190" fill="#8dd122" /><rect width="10" height="10" x="170" y="190" fill="#8dd122" /><rect width="20" height="10" x="180" y="190" fill="#ffffff" /><rect width="40" height="10" x="200" y="190" fill="#000000" /><rect width="10" height="10" x="240" y="190" fill="#8dd122" /><rect width="10" height="10" x="80" y="200" fill="#8dd122" /><rect width="20" height="10" x="90" y="200" fill="#ffffff" /><rect width="40" height="10" x="110" y="200" fill="#000000" /><rect width="10" height="10" x="150" y="200" fill="#8dd122" /><rect width="10" height="10" x="170" y="200" fill="#8dd122" /><rect width="20" height="10" x="180" y="200" fill="#ffffff" /><rect width="40" height="10" x="200" y="200" fill="#000000" /><rect width="10" height="10" x="240" y="200" fill="#8dd122" /><rect width="80" height="10" x="80" y="210" fill="#8dd122" /><rect width="80" height="10" x="170" y="210" fill="#8dd122" /></svg>